# xmcd
#
# Track frame offsets:
#	195
#	18565
#	33900
#	51877
#	69715
#	91027
#	108610
#	123557
#	136310
#	154847
#	172230
#
# Disc length: 2459 seconds
#
# Revision: 1
# Processed by: cddbd v1.5PL3 Copyright (c) Steve Scherf et al.
# Submitted via: MusicManager 7.0.4.0 
#
DISCID=9809990b
DTITLE=Kimberly M'Carver - Breathe the Moonlight
DYEAR=1990
DGENRE=
TTITLE0=Silver Wheeled Pony
TTITLE1=Whistle Down The Wind
TTITLE2=Cryin' Wolf
TTITLE3=Borrowed Time
TTITLE4=Only In My Dreams
TTITLE5=Jose's Lullaby
TTITLE6=Springtime Friends
TTITLE7=My Way Back Home To You
TTITLE8=Carnival Man
TTITLE9=Serious Doubt
TTITLE10=Texas Home
EXTD=
EXTT0=
EXTT1=
EXTT2=
EXTT3=
EXTT4=
EXTT5=
EXTT6=
EXTT7=
EXTT8=
EXTT9=
EXTT10=
PLAYORDER=
